<mxfile host="app.diagrams.net" agent="Mozilla/5.0 (Windows NT 10.0; Win64; x64) AppleWebKit/537.36 (KHTML, like Gecko) Chrome/129.0.0.0 Safari/537.36" version="24.7.17" pages="2">
  <diagram name="Page-1" id="C25z9UcsgM7LZRhZhn0t">
    <mxGraphModel dx="1400" dy="1796" grid="1" gridSize="10" guides="1" tooltips="1" connect="1" arrows="1" fold="1" page="1" pageScale="1" pageWidth="850" pageHeight="1100" math="0" shadow="0">
      <root>
        <mxCell id="0" />
        <mxCell id="1" parent="0" />
        <mxCell id="CczzKJRki1z5u3muKdd8-11" value="input" style="text;html=1;align=center;verticalAlign=middle;whiteSpace=wrap;rounded=0;" parent="1" vertex="1">
          <mxGeometry x="705" y="-880" width="60" height="35" as="geometry" />
        </mxCell>
        <mxCell id="B2sZh1mb08iBnEZZUQcD-18" style="edgeStyle=orthogonalEdgeStyle;rounded=0;orthogonalLoop=1;jettySize=auto;html=1;exitX=0.5;exitY=1;exitDx=0;exitDy=0;entryX=0.5;entryY=0;entryDx=0;entryDy=0;" parent="1" source="B2sZh1mb08iBnEZZUQcD-6" target="B2sZh1mb08iBnEZZUQcD-12" edge="1">
          <mxGeometry relative="1" as="geometry" />
        </mxCell>
        <mxCell id="B2sZh1mb08iBnEZZUQcD-6" value="ورود کاربر" style="shape=parallelogram;html=1;strokeWidth=2;perimeter=parallelogramPerimeter;whiteSpace=wrap;rounded=1;arcSize=12;size=0.23;" parent="1" vertex="1">
          <mxGeometry x="677.5" y="-905" width="95" height="60" as="geometry" />
        </mxCell>
        <mxCell id="B2sZh1mb08iBnEZZUQcD-12" value="نوشتن من&lt;div&gt;ارسال عکس&lt;/div&gt;" style="rounded=1;whiteSpace=wrap;html=1;absoluteArcSize=1;arcSize=14;strokeWidth=2;" parent="1" vertex="1">
          <mxGeometry x="675" y="-811" width="100" height="100" as="geometry" />
        </mxCell>
        <mxCell id="B2sZh1mb08iBnEZZUQcD-17" style="edgeStyle=orthogonalEdgeStyle;rounded=0;orthogonalLoop=1;jettySize=auto;html=1;exitX=0.5;exitY=1;exitDx=0;exitDy=0;exitPerimeter=0;" parent="1" source="B2sZh1mb08iBnEZZUQcD-13" target="B2sZh1mb08iBnEZZUQcD-6" edge="1">
          <mxGeometry relative="1" as="geometry" />
        </mxCell>
        <mxCell id="B2sZh1mb08iBnEZZUQcD-13" value="stert" style="strokeWidth=2;html=1;shape=mxgraph.flowchart.start_2;whiteSpace=wrap;" parent="1" vertex="1">
          <mxGeometry x="675" y="-1040" width="100" height="100" as="geometry" />
        </mxCell>
        <mxCell id="B2sZh1mb08iBnEZZUQcD-14" value="end" style="strokeWidth=2;html=1;shape=mxgraph.flowchart.start_2;whiteSpace=wrap;" parent="1" vertex="1">
          <mxGeometry x="665" y="-580" width="100" height="100" as="geometry" />
        </mxCell>
        <mxCell id="B2sZh1mb08iBnEZZUQcD-16" value="دریافت عکس" style="shape=parallelogram;html=1;strokeWidth=2;perimeter=parallelogramPerimeter;whiteSpace=wrap;rounded=1;arcSize=12;size=0.23;" parent="1" vertex="1">
          <mxGeometry x="665" y="-680" width="100" height="60" as="geometry" />
        </mxCell>
        <mxCell id="B2sZh1mb08iBnEZZUQcD-19" style="edgeStyle=orthogonalEdgeStyle;rounded=0;orthogonalLoop=1;jettySize=auto;html=1;exitX=0.5;exitY=1;exitDx=0;exitDy=0;" parent="1" source="B2sZh1mb08iBnEZZUQcD-12" edge="1">
          <mxGeometry relative="1" as="geometry">
            <mxPoint x="720" y="-680" as="targetPoint" />
          </mxGeometry>
        </mxCell>
        <mxCell id="B2sZh1mb08iBnEZZUQcD-22" value="input" style="text;html=1;align=center;verticalAlign=middle;whiteSpace=wrap;rounded=0;" parent="1" vertex="1">
          <mxGeometry x="455" y="-880" width="60" height="35" as="geometry" />
        </mxCell>
        <mxCell id="ln6dcHqSwIR2rO3gXfK0-1" style="edgeStyle=orthogonalEdgeStyle;rounded=0;orthogonalLoop=1;jettySize=auto;html=1;exitX=0.5;exitY=1;exitDx=0;exitDy=0;entryX=0.5;entryY=0;entryDx=0;entryDy=0;" edge="1" parent="1" source="B2sZh1mb08iBnEZZUQcD-24" target="B2sZh1mb08iBnEZZUQcD-25">
          <mxGeometry relative="1" as="geometry" />
        </mxCell>
        <mxCell id="B2sZh1mb08iBnEZZUQcD-24" value="ورود مدیر" style="shape=parallelogram;html=1;strokeWidth=2;perimeter=parallelogramPerimeter;whiteSpace=wrap;rounded=1;arcSize=12;size=0.23;" parent="1" vertex="1">
          <mxGeometry x="430" y="-908" width="95" height="60" as="geometry" />
        </mxCell>
        <mxCell id="B2sZh1mb08iBnEZZUQcD-45" value="" style="edgeStyle=orthogonalEdgeStyle;rounded=0;orthogonalLoop=1;jettySize=auto;html=1;" parent="1" source="B2sZh1mb08iBnEZZUQcD-25" target="B2sZh1mb08iBnEZZUQcD-27" edge="1">
          <mxGeometry relative="1" as="geometry" />
        </mxCell>
        <mxCell id="B2sZh1mb08iBnEZZUQcD-25" value="&lt;div&gt;پاسخ یا فوروارد به دیگر اعضا&lt;/div&gt;" style="rounded=1;whiteSpace=wrap;html=1;absoluteArcSize=1;arcSize=14;strokeWidth=2;" parent="1" vertex="1">
          <mxGeometry x="427.5" y="-820" width="100" height="100" as="geometry" />
        </mxCell>
        <mxCell id="B2sZh1mb08iBnEZZUQcD-27" value="end" style="strokeWidth=2;html=1;shape=mxgraph.flowchart.start_2;whiteSpace=wrap;" parent="1" vertex="1">
          <mxGeometry x="427.5" y="-660" width="100" height="100" as="geometry" />
        </mxCell>
        <mxCell id="ln6dcHqSwIR2rO3gXfK0-2" style="edgeStyle=orthogonalEdgeStyle;rounded=0;orthogonalLoop=1;jettySize=auto;html=1;entryX=0.5;entryY=0;entryDx=0;entryDy=0;" edge="1" parent="1" source="B2sZh1mb08iBnEZZUQcD-31" target="B2sZh1mb08iBnEZZUQcD-24">
          <mxGeometry relative="1" as="geometry" />
        </mxCell>
        <mxCell id="B2sZh1mb08iBnEZZUQcD-31" value="stert" style="strokeWidth=2;html=1;shape=mxgraph.flowchart.start_2;whiteSpace=wrap;" parent="1" vertex="1">
          <mxGeometry x="427.5" y="-1050" width="100" height="100" as="geometry" />
        </mxCell>
        <mxCell id="B2sZh1mb08iBnEZZUQcD-32" value="input" style="text;html=1;align=center;verticalAlign=middle;whiteSpace=wrap;rounded=0;" parent="1" vertex="1">
          <mxGeometry x="185" y="-880" width="60" height="35" as="geometry" />
        </mxCell>
        <mxCell id="B2sZh1mb08iBnEZZUQcD-34" value="ورود اعضا" style="shape=parallelogram;html=1;strokeWidth=2;perimeter=parallelogramPerimeter;whiteSpace=wrap;rounded=1;arcSize=12;size=0.23;" parent="1" vertex="1">
          <mxGeometry x="160" y="-908" width="95" height="60" as="geometry" />
        </mxCell>
        <mxCell id="B2sZh1mb08iBnEZZUQcD-36" style="edgeStyle=orthogonalEdgeStyle;rounded=0;orthogonalLoop=1;jettySize=auto;html=1;exitX=0.5;exitY=1;exitDx=0;exitDy=0;exitPerimeter=0;" parent="1" target="B2sZh1mb08iBnEZZUQcD-34" edge="1">
          <mxGeometry relative="1" as="geometry">
            <mxPoint x="205" y="-940" as="sourcePoint" />
          </mxGeometry>
        </mxCell>
        <mxCell id="B2sZh1mb08iBnEZZUQcD-37" value="end" style="strokeWidth=2;html=1;shape=mxgraph.flowchart.start_2;whiteSpace=wrap;" parent="1" vertex="1">
          <mxGeometry x="145" y="-690" width="100" height="100" as="geometry" />
        </mxCell>
        <mxCell id="B2sZh1mb08iBnEZZUQcD-39" value="پاسخ" style="shape=parallelogram;html=1;strokeWidth=2;perimeter=parallelogramPerimeter;whiteSpace=wrap;rounded=1;arcSize=12;size=0.23;" parent="1" vertex="1">
          <mxGeometry x="145" y="-811" width="100" height="60" as="geometry" />
        </mxCell>
        <mxCell id="B2sZh1mb08iBnEZZUQcD-41" value="stert" style="strokeWidth=2;html=1;shape=mxgraph.flowchart.start_2;whiteSpace=wrap;" parent="1" vertex="1">
          <mxGeometry x="155" y="-1040" width="100" height="100" as="geometry" />
        </mxCell>
        <mxCell id="ln6dcHqSwIR2rO3gXfK0-3" style="edgeStyle=orthogonalEdgeStyle;rounded=0;orthogonalLoop=1;jettySize=auto;html=1;exitX=0.5;exitY=1;exitDx=0;exitDy=0;entryX=0.5;entryY=0;entryDx=0;entryDy=0;entryPerimeter=0;" edge="1" parent="1" source="B2sZh1mb08iBnEZZUQcD-16" target="B2sZh1mb08iBnEZZUQcD-14">
          <mxGeometry relative="1" as="geometry" />
        </mxCell>
        <mxCell id="ln6dcHqSwIR2rO3gXfK0-4" style="edgeStyle=orthogonalEdgeStyle;rounded=0;orthogonalLoop=1;jettySize=auto;html=1;exitX=0.25;exitY=1;exitDx=0;exitDy=0;entryX=0.548;entryY=-0.022;entryDx=0;entryDy=0;entryPerimeter=0;" edge="1" parent="1" source="B2sZh1mb08iBnEZZUQcD-32" target="B2sZh1mb08iBnEZZUQcD-39">
          <mxGeometry relative="1" as="geometry" />
        </mxCell>
        <mxCell id="ln6dcHqSwIR2rO3gXfK0-6" style="edgeStyle=orthogonalEdgeStyle;rounded=0;orthogonalLoop=1;jettySize=auto;html=1;entryX=0.5;entryY=0;entryDx=0;entryDy=0;entryPerimeter=0;" edge="1" parent="1" source="B2sZh1mb08iBnEZZUQcD-39" target="B2sZh1mb08iBnEZZUQcD-37">
          <mxGeometry relative="1" as="geometry" />
        </mxCell>
      </root>
    </mxGraphModel>
  </diagram>
  <diagram id="lxJ-x8k-FfzeU9B7Htja" name="Page-2">
    <mxGraphModel dx="913" dy="454" grid="1" gridSize="10" guides="1" tooltips="1" connect="1" arrows="1" fold="1" page="1" pageScale="1" pageWidth="850" pageHeight="1100" math="0" shadow="0">
      <root>
        <mxCell id="0" />
        <mxCell id="1" parent="0" />
        <mxCell id="dSvQQIbUY7IyOQ9Gd0uB-44" value="tiket" style="shape=table;startSize=30;container=1;collapsible=1;childLayout=tableLayout;fixedRows=1;rowLines=0;fontStyle=1;align=center;resizeLast=1;html=1;" parent="1" vertex="1">
          <mxGeometry x="470" y="220" width="180" height="300" as="geometry" />
        </mxCell>
        <mxCell id="dSvQQIbUY7IyOQ9Gd0uB-45" value="" style="shape=tableRow;horizontal=0;startSize=0;swimlaneHead=0;swimlaneBody=0;fillColor=none;collapsible=0;dropTarget=0;points=[[0,0.5],[1,0.5]];portConstraint=eastwest;top=0;left=0;right=0;bottom=1;" parent="dSvQQIbUY7IyOQ9Gd0uB-44" vertex="1">
          <mxGeometry y="30" width="180" height="30" as="geometry" />
        </mxCell>
        <mxCell id="dSvQQIbUY7IyOQ9Gd0uB-46" value="PK" style="shape=partialRectangle;connectable=0;fillColor=none;top=0;left=0;bottom=0;right=0;fontStyle=1;overflow=hidden;whiteSpace=wrap;html=1;" parent="dSvQQIbUY7IyOQ9Gd0uB-45" vertex="1">
          <mxGeometry width="30" height="30" as="geometry">
            <mxRectangle width="30" height="30" as="alternateBounds" />
          </mxGeometry>
        </mxCell>
        <mxCell id="dSvQQIbUY7IyOQ9Gd0uB-47" value="Id" style="shape=partialRectangle;connectable=0;fillColor=none;top=0;left=0;bottom=0;right=0;align=left;spacingLeft=6;fontStyle=5;overflow=hidden;whiteSpace=wrap;html=1;" parent="dSvQQIbUY7IyOQ9Gd0uB-45" vertex="1">
          <mxGeometry x="30" width="150" height="30" as="geometry">
            <mxRectangle width="150" height="30" as="alternateBounds" />
          </mxGeometry>
        </mxCell>
        <mxCell id="dSvQQIbUY7IyOQ9Gd0uB-48" value="" style="shape=tableRow;horizontal=0;startSize=0;swimlaneHead=0;swimlaneBody=0;fillColor=none;collapsible=0;dropTarget=0;points=[[0,0.5],[1,0.5]];portConstraint=eastwest;top=0;left=0;right=0;bottom=0;" parent="dSvQQIbUY7IyOQ9Gd0uB-44" vertex="1">
          <mxGeometry y="60" width="180" height="30" as="geometry" />
        </mxCell>
        <mxCell id="dSvQQIbUY7IyOQ9Gd0uB-49" value="" style="shape=partialRectangle;connectable=0;fillColor=none;top=0;left=0;bottom=0;right=0;editable=1;overflow=hidden;whiteSpace=wrap;html=1;" parent="dSvQQIbUY7IyOQ9Gd0uB-48" vertex="1">
          <mxGeometry width="30" height="30" as="geometry">
            <mxRectangle width="30" height="30" as="alternateBounds" />
          </mxGeometry>
        </mxCell>
        <mxCell id="dSvQQIbUY7IyOQ9Gd0uB-50" value="text" style="shape=partialRectangle;connectable=0;fillColor=none;top=0;left=0;bottom=0;right=0;align=left;spacingLeft=6;overflow=hidden;whiteSpace=wrap;html=1;" parent="dSvQQIbUY7IyOQ9Gd0uB-48" vertex="1">
          <mxGeometry x="30" width="150" height="30" as="geometry">
            <mxRectangle width="150" height="30" as="alternateBounds" />
          </mxGeometry>
        </mxCell>
        <mxCell id="dSvQQIbUY7IyOQ9Gd0uB-51" value="" style="shape=tableRow;horizontal=0;startSize=0;swimlaneHead=0;swimlaneBody=0;fillColor=none;collapsible=0;dropTarget=0;points=[[0,0.5],[1,0.5]];portConstraint=eastwest;top=0;left=0;right=0;bottom=0;" parent="dSvQQIbUY7IyOQ9Gd0uB-44" vertex="1">
          <mxGeometry y="90" width="180" height="30" as="geometry" />
        </mxCell>
        <mxCell id="dSvQQIbUY7IyOQ9Gd0uB-52" value="" style="shape=partialRectangle;connectable=0;fillColor=none;top=0;left=0;bottom=0;right=0;editable=1;overflow=hidden;whiteSpace=wrap;html=1;" parent="dSvQQIbUY7IyOQ9Gd0uB-51" vertex="1">
          <mxGeometry width="30" height="30" as="geometry">
            <mxRectangle width="30" height="30" as="alternateBounds" />
          </mxGeometry>
        </mxCell>
        <mxCell id="dSvQQIbUY7IyOQ9Gd0uB-53" value="title" style="shape=partialRectangle;connectable=0;fillColor=none;top=0;left=0;bottom=0;right=0;align=left;spacingLeft=6;overflow=hidden;whiteSpace=wrap;html=1;" parent="dSvQQIbUY7IyOQ9Gd0uB-51" vertex="1">
          <mxGeometry x="30" width="150" height="30" as="geometry">
            <mxRectangle width="150" height="30" as="alternateBounds" />
          </mxGeometry>
        </mxCell>
        <mxCell id="dSvQQIbUY7IyOQ9Gd0uB-54" value="" style="shape=tableRow;horizontal=0;startSize=0;swimlaneHead=0;swimlaneBody=0;fillColor=none;collapsible=0;dropTarget=0;points=[[0,0.5],[1,0.5]];portConstraint=eastwest;top=0;left=0;right=0;bottom=0;" parent="dSvQQIbUY7IyOQ9Gd0uB-44" vertex="1">
          <mxGeometry y="120" width="180" height="30" as="geometry" />
        </mxCell>
        <mxCell id="dSvQQIbUY7IyOQ9Gd0uB-55" value="" style="shape=partialRectangle;connectable=0;fillColor=none;top=0;left=0;bottom=0;right=0;editable=1;overflow=hidden;whiteSpace=wrap;html=1;" parent="dSvQQIbUY7IyOQ9Gd0uB-54" vertex="1">
          <mxGeometry width="30" height="30" as="geometry">
            <mxRectangle width="30" height="30" as="alternateBounds" />
          </mxGeometry>
        </mxCell>
        <mxCell id="dSvQQIbUY7IyOQ9Gd0uB-56" value="file" style="shape=partialRectangle;connectable=0;fillColor=none;top=0;left=0;bottom=0;right=0;align=left;spacingLeft=6;overflow=hidden;whiteSpace=wrap;html=1;" parent="dSvQQIbUY7IyOQ9Gd0uB-54" vertex="1">
          <mxGeometry x="30" width="150" height="30" as="geometry">
            <mxRectangle width="150" height="30" as="alternateBounds" />
          </mxGeometry>
        </mxCell>
        <mxCell id="mg3O5mDUh5Wr2H-7d09m-60" value="" style="shape=tableRow;horizontal=0;startSize=0;swimlaneHead=0;swimlaneBody=0;fillColor=none;collapsible=0;dropTarget=0;points=[[0,0.5],[1,0.5]];portConstraint=eastwest;top=0;left=0;right=0;bottom=0;" parent="dSvQQIbUY7IyOQ9Gd0uB-44" vertex="1">
          <mxGeometry y="150" width="180" height="30" as="geometry" />
        </mxCell>
        <mxCell id="mg3O5mDUh5Wr2H-7d09m-61" value="" style="shape=partialRectangle;connectable=0;fillColor=none;top=0;left=0;bottom=0;right=0;editable=1;overflow=hidden;whiteSpace=wrap;html=1;" parent="mg3O5mDUh5Wr2H-7d09m-60" vertex="1">
          <mxGeometry width="30" height="30" as="geometry">
            <mxRectangle width="30" height="30" as="alternateBounds" />
          </mxGeometry>
        </mxCell>
        <mxCell id="mg3O5mDUh5Wr2H-7d09m-62" value="user" style="shape=partialRectangle;connectable=0;fillColor=none;top=0;left=0;bottom=0;right=0;align=left;spacingLeft=6;overflow=hidden;whiteSpace=wrap;html=1;" parent="mg3O5mDUh5Wr2H-7d09m-60" vertex="1">
          <mxGeometry x="30" width="150" height="30" as="geometry">
            <mxRectangle width="150" height="30" as="alternateBounds" />
          </mxGeometry>
        </mxCell>
        <mxCell id="mg3O5mDUh5Wr2H-7d09m-63" value="" style="shape=tableRow;horizontal=0;startSize=0;swimlaneHead=0;swimlaneBody=0;fillColor=none;collapsible=0;dropTarget=0;points=[[0,0.5],[1,0.5]];portConstraint=eastwest;top=0;left=0;right=0;bottom=0;" parent="dSvQQIbUY7IyOQ9Gd0uB-44" vertex="1">
          <mxGeometry y="180" width="180" height="30" as="geometry" />
        </mxCell>
        <mxCell id="mg3O5mDUh5Wr2H-7d09m-64" value="" style="shape=partialRectangle;connectable=0;fillColor=none;top=0;left=0;bottom=0;right=0;editable=1;overflow=hidden;whiteSpace=wrap;html=1;" parent="mg3O5mDUh5Wr2H-7d09m-63" vertex="1">
          <mxGeometry width="30" height="30" as="geometry">
            <mxRectangle width="30" height="30" as="alternateBounds" />
          </mxGeometry>
        </mxCell>
        <mxCell id="mg3O5mDUh5Wr2H-7d09m-65" value="date" style="shape=partialRectangle;connectable=0;fillColor=none;top=0;left=0;bottom=0;right=0;align=left;spacingLeft=6;overflow=hidden;whiteSpace=wrap;html=1;" parent="mg3O5mDUh5Wr2H-7d09m-63" vertex="1">
          <mxGeometry x="30" width="150" height="30" as="geometry">
            <mxRectangle width="150" height="30" as="alternateBounds" />
          </mxGeometry>
        </mxCell>
        <mxCell id="mg3O5mDUh5Wr2H-7d09m-66" value="" style="shape=tableRow;horizontal=0;startSize=0;swimlaneHead=0;swimlaneBody=0;fillColor=none;collapsible=0;dropTarget=0;points=[[0,0.5],[1,0.5]];portConstraint=eastwest;top=0;left=0;right=0;bottom=0;" parent="dSvQQIbUY7IyOQ9Gd0uB-44" vertex="1">
          <mxGeometry y="210" width="180" height="30" as="geometry" />
        </mxCell>
        <mxCell id="mg3O5mDUh5Wr2H-7d09m-67" value="" style="shape=partialRectangle;connectable=0;fillColor=none;top=0;left=0;bottom=0;right=0;editable=1;overflow=hidden;whiteSpace=wrap;html=1;" parent="mg3O5mDUh5Wr2H-7d09m-66" vertex="1">
          <mxGeometry width="30" height="30" as="geometry">
            <mxRectangle width="30" height="30" as="alternateBounds" />
          </mxGeometry>
        </mxCell>
        <mxCell id="mg3O5mDUh5Wr2H-7d09m-68" value="answer" style="shape=partialRectangle;connectable=0;fillColor=none;top=0;left=0;bottom=0;right=0;align=left;spacingLeft=6;overflow=hidden;whiteSpace=wrap;html=1;" parent="mg3O5mDUh5Wr2H-7d09m-66" vertex="1">
          <mxGeometry x="30" width="150" height="30" as="geometry">
            <mxRectangle width="150" height="30" as="alternateBounds" />
          </mxGeometry>
        </mxCell>
        <mxCell id="mg3O5mDUh5Wr2H-7d09m-69" value="" style="shape=tableRow;horizontal=0;startSize=0;swimlaneHead=0;swimlaneBody=0;fillColor=none;collapsible=0;dropTarget=0;points=[[0,0.5],[1,0.5]];portConstraint=eastwest;top=0;left=0;right=0;bottom=0;" parent="dSvQQIbUY7IyOQ9Gd0uB-44" vertex="1">
          <mxGeometry y="240" width="180" height="30" as="geometry" />
        </mxCell>
        <mxCell id="mg3O5mDUh5Wr2H-7d09m-70" value="" style="shape=partialRectangle;connectable=0;fillColor=none;top=0;left=0;bottom=0;right=0;editable=1;overflow=hidden;whiteSpace=wrap;html=1;" parent="mg3O5mDUh5Wr2H-7d09m-69" vertex="1">
          <mxGeometry width="30" height="30" as="geometry">
            <mxRectangle width="30" height="30" as="alternateBounds" />
          </mxGeometry>
        </mxCell>
        <mxCell id="mg3O5mDUh5Wr2H-7d09m-71" value="reply" style="shape=partialRectangle;connectable=0;fillColor=none;top=0;left=0;bottom=0;right=0;align=left;spacingLeft=6;overflow=hidden;whiteSpace=wrap;html=1;" parent="mg3O5mDUh5Wr2H-7d09m-69" vertex="1">
          <mxGeometry x="30" width="150" height="30" as="geometry">
            <mxRectangle width="150" height="30" as="alternateBounds" />
          </mxGeometry>
        </mxCell>
        <mxCell id="mg3O5mDUh5Wr2H-7d09m-72" value="" style="shape=tableRow;horizontal=0;startSize=0;swimlaneHead=0;swimlaneBody=0;fillColor=none;collapsible=0;dropTarget=0;points=[[0,0.5],[1,0.5]];portConstraint=eastwest;top=0;left=0;right=0;bottom=0;" parent="dSvQQIbUY7IyOQ9Gd0uB-44" vertex="1">
          <mxGeometry y="270" width="180" height="30" as="geometry" />
        </mxCell>
        <mxCell id="mg3O5mDUh5Wr2H-7d09m-73" value="" style="shape=partialRectangle;connectable=0;fillColor=none;top=0;left=0;bottom=0;right=0;editable=1;overflow=hidden;whiteSpace=wrap;html=1;" parent="mg3O5mDUh5Wr2H-7d09m-72" vertex="1">
          <mxGeometry width="30" height="30" as="geometry">
            <mxRectangle width="30" height="30" as="alternateBounds" />
          </mxGeometry>
        </mxCell>
        <mxCell id="mg3O5mDUh5Wr2H-7d09m-74" value="forward" style="shape=partialRectangle;connectable=0;fillColor=none;top=0;left=0;bottom=0;right=0;align=left;spacingLeft=6;overflow=hidden;whiteSpace=wrap;html=1;" parent="mg3O5mDUh5Wr2H-7d09m-72" vertex="1">
          <mxGeometry x="30" width="150" height="30" as="geometry">
            <mxRectangle width="150" height="30" as="alternateBounds" />
          </mxGeometry>
        </mxCell>
        <mxCell id="dSvQQIbUY7IyOQ9Gd0uB-31" value="user" style="shape=table;startSize=30;container=1;collapsible=1;childLayout=tableLayout;fixedRows=1;rowLines=0;fontStyle=1;align=center;resizeLast=1;html=1;" parent="1" vertex="1">
          <mxGeometry x="190" y="280" width="180" height="180" as="geometry">
            <mxRectangle x="250" y="220" width="60" height="30" as="alternateBounds" />
          </mxGeometry>
        </mxCell>
        <mxCell id="dSvQQIbUY7IyOQ9Gd0uB-32" value="" style="shape=tableRow;horizontal=0;startSize=0;swimlaneHead=0;swimlaneBody=0;fillColor=none;collapsible=0;dropTarget=0;points=[[0,0.5],[1,0.5]];portConstraint=eastwest;top=0;left=0;right=0;bottom=1;" parent="dSvQQIbUY7IyOQ9Gd0uB-31" vertex="1">
          <mxGeometry y="30" width="180" height="30" as="geometry" />
        </mxCell>
        <mxCell id="dSvQQIbUY7IyOQ9Gd0uB-33" value="PK" style="shape=partialRectangle;connectable=0;fillColor=none;top=0;left=0;bottom=0;right=0;fontStyle=1;overflow=hidden;whiteSpace=wrap;html=1;" parent="dSvQQIbUY7IyOQ9Gd0uB-32" vertex="1">
          <mxGeometry width="24.999999999999886" height="30" as="geometry">
            <mxRectangle width="24.999999999999886" height="30" as="alternateBounds" />
          </mxGeometry>
        </mxCell>
        <mxCell id="dSvQQIbUY7IyOQ9Gd0uB-34" value="Email" style="shape=partialRectangle;connectable=0;fillColor=none;top=0;left=0;bottom=0;right=0;align=left;spacingLeft=6;fontStyle=5;overflow=hidden;whiteSpace=wrap;html=1;" parent="dSvQQIbUY7IyOQ9Gd0uB-32" vertex="1">
          <mxGeometry x="24.999999999999886" width="155.0000000000001" height="30" as="geometry">
            <mxRectangle width="155.0000000000001" height="30" as="alternateBounds" />
          </mxGeometry>
        </mxCell>
        <mxCell id="dSvQQIbUY7IyOQ9Gd0uB-35" value="" style="shape=tableRow;horizontal=0;startSize=0;swimlaneHead=0;swimlaneBody=0;fillColor=none;collapsible=0;dropTarget=0;points=[[0,0.5],[1,0.5]];portConstraint=eastwest;top=0;left=0;right=0;bottom=0;" parent="dSvQQIbUY7IyOQ9Gd0uB-31" vertex="1">
          <mxGeometry y="60" width="180" height="30" as="geometry" />
        </mxCell>
        <mxCell id="dSvQQIbUY7IyOQ9Gd0uB-36" value="" style="shape=partialRectangle;connectable=0;fillColor=none;top=0;left=0;bottom=0;right=0;editable=1;overflow=hidden;whiteSpace=wrap;html=1;" parent="dSvQQIbUY7IyOQ9Gd0uB-35" vertex="1">
          <mxGeometry width="24.999999999999886" height="30" as="geometry">
            <mxRectangle width="24.999999999999886" height="30" as="alternateBounds" />
          </mxGeometry>
        </mxCell>
        <mxCell id="dSvQQIbUY7IyOQ9Gd0uB-37" value="password" style="shape=partialRectangle;connectable=0;fillColor=none;top=0;left=0;bottom=0;right=0;align=left;spacingLeft=6;overflow=hidden;whiteSpace=wrap;html=1;" parent="dSvQQIbUY7IyOQ9Gd0uB-35" vertex="1">
          <mxGeometry x="24.999999999999886" width="155.0000000000001" height="30" as="geometry">
            <mxRectangle width="155.0000000000001" height="30" as="alternateBounds" />
          </mxGeometry>
        </mxCell>
        <mxCell id="dSvQQIbUY7IyOQ9Gd0uB-38" value="" style="shape=tableRow;horizontal=0;startSize=0;swimlaneHead=0;swimlaneBody=0;fillColor=none;collapsible=0;dropTarget=0;points=[[0,0.5],[1,0.5]];portConstraint=eastwest;top=0;left=0;right=0;bottom=0;" parent="dSvQQIbUY7IyOQ9Gd0uB-31" vertex="1">
          <mxGeometry y="90" width="180" height="30" as="geometry" />
        </mxCell>
        <mxCell id="dSvQQIbUY7IyOQ9Gd0uB-39" value="" style="shape=partialRectangle;connectable=0;fillColor=none;top=0;left=0;bottom=0;right=0;editable=1;overflow=hidden;whiteSpace=wrap;html=1;" parent="dSvQQIbUY7IyOQ9Gd0uB-38" vertex="1">
          <mxGeometry width="24.999999999999886" height="30" as="geometry">
            <mxRectangle width="24.999999999999886" height="30" as="alternateBounds" />
          </mxGeometry>
        </mxCell>
        <mxCell id="dSvQQIbUY7IyOQ9Gd0uB-40" value="f-name" style="shape=partialRectangle;connectable=0;fillColor=none;top=0;left=0;bottom=0;right=0;align=left;spacingLeft=6;overflow=hidden;whiteSpace=wrap;html=1;" parent="dSvQQIbUY7IyOQ9Gd0uB-38" vertex="1">
          <mxGeometry x="24.999999999999886" width="155.0000000000001" height="30" as="geometry">
            <mxRectangle width="155.0000000000001" height="30" as="alternateBounds" />
          </mxGeometry>
        </mxCell>
        <mxCell id="dSvQQIbUY7IyOQ9Gd0uB-41" value="" style="shape=tableRow;horizontal=0;startSize=0;swimlaneHead=0;swimlaneBody=0;fillColor=none;collapsible=0;dropTarget=0;points=[[0,0.5],[1,0.5]];portConstraint=eastwest;top=0;left=0;right=0;bottom=0;" parent="dSvQQIbUY7IyOQ9Gd0uB-31" vertex="1">
          <mxGeometry y="120" width="180" height="30" as="geometry" />
        </mxCell>
        <mxCell id="dSvQQIbUY7IyOQ9Gd0uB-42" value="" style="shape=partialRectangle;connectable=0;fillColor=none;top=0;left=0;bottom=0;right=0;editable=1;overflow=hidden;whiteSpace=wrap;html=1;" parent="dSvQQIbUY7IyOQ9Gd0uB-41" vertex="1">
          <mxGeometry width="24.999999999999886" height="30" as="geometry">
            <mxRectangle width="24.999999999999886" height="30" as="alternateBounds" />
          </mxGeometry>
        </mxCell>
        <mxCell id="dSvQQIbUY7IyOQ9Gd0uB-43" value="L-name" style="shape=partialRectangle;connectable=0;fillColor=none;top=0;left=0;bottom=0;right=0;align=left;spacingLeft=6;overflow=hidden;whiteSpace=wrap;html=1;" parent="dSvQQIbUY7IyOQ9Gd0uB-41" vertex="1">
          <mxGeometry x="24.999999999999886" width="155.0000000000001" height="30" as="geometry">
            <mxRectangle width="155.0000000000001" height="30" as="alternateBounds" />
          </mxGeometry>
        </mxCell>
        <mxCell id="mg3O5mDUh5Wr2H-7d09m-3" value="" style="shape=tableRow;horizontal=0;startSize=0;swimlaneHead=0;swimlaneBody=0;fillColor=none;collapsible=0;dropTarget=0;points=[[0,0.5],[1,0.5]];portConstraint=eastwest;top=0;left=0;right=0;bottom=0;" parent="dSvQQIbUY7IyOQ9Gd0uB-31" vertex="1">
          <mxGeometry y="150" width="180" height="30" as="geometry" />
        </mxCell>
        <mxCell id="mg3O5mDUh5Wr2H-7d09m-4" value="" style="shape=partialRectangle;connectable=0;fillColor=none;top=0;left=0;bottom=0;right=0;editable=1;overflow=hidden;whiteSpace=wrap;html=1;" parent="mg3O5mDUh5Wr2H-7d09m-3" vertex="1">
          <mxGeometry width="24.999999999999886" height="30" as="geometry">
            <mxRectangle width="24.999999999999886" height="30" as="alternateBounds" />
          </mxGeometry>
        </mxCell>
        <mxCell id="mg3O5mDUh5Wr2H-7d09m-5" value="role" style="shape=partialRectangle;connectable=0;fillColor=none;top=0;left=0;bottom=0;right=0;align=left;spacingLeft=6;overflow=hidden;whiteSpace=wrap;html=1;" parent="mg3O5mDUh5Wr2H-7d09m-3" vertex="1">
          <mxGeometry x="24.999999999999886" width="155.0000000000001" height="30" as="geometry">
            <mxRectangle width="155.0000000000001" height="30" as="alternateBounds" />
          </mxGeometry>
        </mxCell>
        <mxCell id="qO1mCeydEWPYvVAaAMs8-4" value="" style="edgeStyle=entityRelationEdgeStyle;fontSize=12;html=1;endArrow=ERoneToMany;rounded=0;entryX=0;entryY=0.5;entryDx=0;entryDy=0;exitX=1;exitY=0.5;exitDx=0;exitDy=0;" parent="1" source="dSvQQIbUY7IyOQ9Gd0uB-32" target="mg3O5mDUh5Wr2H-7d09m-60" edge="1">
          <mxGeometry width="100" height="100" relative="1" as="geometry">
            <mxPoint x="369.99999999999994" y="250" as="sourcePoint" />
            <mxPoint x="468.92" y="317.14" as="targetPoint" />
          </mxGeometry>
        </mxCell>
        <mxCell id="Dc2DSFNt6wj79unNDp1b-2" style="edgeStyle=orthogonalEdgeStyle;rounded=0;orthogonalLoop=1;jettySize=auto;html=1;entryX=1;entryY=0.5;entryDx=0;entryDy=0;" edge="1" parent="1" source="mg3O5mDUh5Wr2H-7d09m-66" target="dSvQQIbUY7IyOQ9Gd0uB-45">
          <mxGeometry relative="1" as="geometry">
            <Array as="points">
              <mxPoint x="670" y="445" />
              <mxPoint x="670" y="265" />
            </Array>
          </mxGeometry>
        </mxCell>
        <mxCell id="Dc2DSFNt6wj79unNDp1b-4" value="" style="edgeStyle=entityRelationEdgeStyle;fontSize=12;html=1;endArrow=ERmany;rounded=0;exitX=1;exitY=0.5;exitDx=0;exitDy=0;entryX=0;entryY=0.5;entryDx=0;entryDy=0;" edge="1" parent="1" source="dSvQQIbUY7IyOQ9Gd0uB-32" target="mg3O5mDUh5Wr2H-7d09m-72">
          <mxGeometry width="100" height="100" relative="1" as="geometry">
            <mxPoint x="390" y="380" as="sourcePoint" />
            <mxPoint x="490" y="565" as="targetPoint" />
          </mxGeometry>
        </mxCell>
      </root>
    </mxGraphModel>
  </diagram>
</mxfile>
